<svg data-v-423bf9ae="" xmlns="http://www.w3.org/2000/svg" viewBox="0 0 453 112" class="iconLeft"><!----><!----><!----><g data-v-423bf9ae="" id="a7cd7a9f-c566-4363-b15f-98f10c0b70c7" fill="black" transform="matrix(5.333333492279053,0,0,5.333333492279053,125.67109680175781,8.70221996307373)"><path d="M8.53 8.26L8.53 14.21L10.47 14.21L10.47 4.24L8.55 4.24L5.75 10.00L2.94 4.24L1.02 4.24L1.02 14.21L2.97 14.21L2.97 8.26L4.79 12.00C5.05 12.53 5.39 12.80 5.75 12.80C6.10 12.80 6.47 12.56 6.73 12.04ZM16.70 10.60C16.70 11.55 16.55 12.77 15.15 12.77C13.87 12.77 13.61 11.55 13.61 10.54L13.61 9.81C13.61 8.75 13.92 7.74 15.15 7.74C16.55 7.74 16.70 8.72 16.70 9.87ZM18.52 10.18C18.52 7.69 17.78 6.10 15.15 6.10C12.42 6.10 11.79 7.85 11.79 10.18C11.79 12.70 12.40 14.41 15.15 14.41C17.93 14.41 18.52 12.73 18.52 10.18ZM24.30 10.60C24.30 11.55 24.15 12.77 22.75 12.77C21.48 12.77 21.21 11.55 21.21 10.54L21.21 9.81C21.21 8.75 21.52 7.74 22.75 7.74C24.15 7.74 24.30 8.72 24.30 9.87ZM26.12 10.18C26.12 7.69 25.38 6.10 22.75 6.10C20.02 6.10 19.39 7.85 19.39 10.18C19.39 12.70 20.01 14.41 22.75 14.41C25.54 14.41 26.12 12.73 26.12 10.18ZM33.78 14.21L33.78 8.85C33.78 8.05 33.63 7.36 33.04 6.78C32.63 6.37 32.19 6.13 31.46 6.13L29.22 7.17L28.80 6.22L27.44 6.22L27.44 14.21L29.26 14.21L29.26 8.60L30.90 7.91C31.47 7.91 31.96 8.11 31.96 9.10L31.96 14.21ZM45.14 14.21L45.14 12.47L42.17 12.47C41.24 12.47 40.94 12.24 40.94 11.44L40.94 4.24L38.99 4.24L38.99 11.44C38.99 13.41 39.94 14.21 42.17 14.21ZM48.52 4.21C48.52 3.35 48.34 3.16 47.47 3.16C46.61 3.16 46.41 3.35 46.41 4.21C46.41 5.08 46.61 5.28 47.47 5.28C48.34 5.28 48.52 5.08 48.52 4.21ZM48.37 14.21L48.37 6.51L46.55 6.51L46.55 14.21ZM53.79 7.91L53.79 6.52L52.30 6.52L52.30 5.87C52.30 5.45 52.50 5.21 52.93 5.21L53.79 5.21L53.79 3.67L52.61 3.67C51.13 3.67 50.48 4.72 50.48 5.75L50.48 6.52L49.73 6.52L49.73 7.91L50.48 7.91L50.48 14.21L52.30 14.21L52.30 7.91ZM61.18 10.64C61.19 10.25 61.21 9.84 61.21 9.49C61.21 7.63 60.48 6.12 58.17 6.12C55.86 6.12 54.71 7.27 54.71 9.93C54.71 13.44 55.76 14.39 58.23 14.39C59.93 14.39 61.19 13.58 61.19 11.49L59.56 11.49C59.56 11.86 59.26 12.74 58.24 12.74C56.77 12.74 56.52 11.97 56.52 10.64ZM56.56 9.39C56.56 8.11 57.25 7.63 58.11 7.63C59.08 7.63 59.56 8.13 59.56 9.39Z"></path></g><!----><g data-v-423bf9ae="" id="c4c6aa3f-6a1f-4e07-9c9a-b6a7eaecdc17" transform="matrix(1.1111111640930176,0,0,1.1111111640930176,0.4444417953491211,0.4444417953491211)" stroke="none" fill="black"><path d="M50 0C22.386 0 0 22.386 0 50s22.386 50 50 50 50-22.386 50-50S77.614 0 50 0zm27.243 44.154c.886-.954 1.514-5.137 1.514-5.137s.69 4.106 1.627 5.083c.999 1.044 5.186 1.735 5.186 1.735s-4.187.715-5.186 1.727c-.986.994-1.627 5.085-1.627 5.085s-.636-4.152-1.626-5.138c-.986-.99-5.192-1.674-5.192-1.674s4.291-.596 5.304-1.681zm-17.335-9.267c.518-.557.883-2.998.883-2.998s.404 2.397.951 2.967c.582.609 3.025 1.012 3.025 1.012s-2.444.419-3.025 1.009c-.575.58-.951 2.967-.951 2.967s-.37-2.424-.948-2.998c-.575-.578-3.03-.978-3.03-.978s2.505-.349 3.095-.981zm-8.554 53.56c-21.233 0-38.445-17.215-38.445-38.447 0-21.233 17.213-38.447 38.445-38.447 1.787 0 3.532.165 5.255.399-7.889 5.478-13.064 14.586-13.064 24.913 0 16.748 13.574 30.319 30.319 30.319 4.747 0 9.225-1.12 13.226-3.065-5.631 14.237-19.491 24.328-35.736 24.328z"></path></g><!----></svg>